<?xml version="1.0" standalone="no"?>
<!DOCTYPE svg PUBLIC "-//W3C//DTD SVG 20010904//EN"
 "http://www.w3.org/TR/2001/REC-SVG-20010904/DTD/svg10.dtd">
<svg version="1.0" xmlns="http://www.w3.org/2000/svg"
 width="269.000000pt" height="250.000000pt" viewBox="0 0 269.000000 250.000000"
 preserveAspectRatio="xMidYMid meet">

<g transform="translate(0.000000,250.000000) scale(0.100000,-0.100000)"
fill="#ffffff" stroke="none">
<path d="M787 2349 c-50 -12 -87 -32 -113 -61 -24 -26 -538 -911 -560 -964
-18 -42 -18 -105 0 -147 21 -52 536 -939 560 -965 11 -13 39 -34 61 -45 39
-22 49 -22 574 -25 361 -2 550 1 586 8 105 22 106 24 400 531 147 254 274 477
281 495 18 43 18 106 0 148 -22 53 -536 938 -560 965 -11 13 -41 33 -66 45
-44 20 -58 21 -585 23 -297 1 -557 -3 -578 -8z m1116 -50 c21 -5 51 -22 67
-37 16 -15 95 -142 175 -282 81 -140 197 -340 257 -444 61 -104 117 -205 125
-225 27 -63 13 -107 -83 -273 -48 -84 -168 -292 -266 -463 -99 -171 -192 -322
-208 -337 -16 -15 -46 -32 -67 -37 -52 -15 -1064 -15 -1116 0 -21 5 -51 22
-67 37 -27 26 -526 878 -558 952 -26 62 -12 107 84 273 93 161 123 213 279
482 54 94 114 197 132 230 19 33 44 70 57 83 49 50 63 51 626 52 339 0 538 -4
563 -11z"/>
<path d="M1225 2164 c-82 -9 -210 -36 -289 -61 -72 -23 -240 -96 -274 -120
-10 -8 -3 -39 32 -149 24 -76 64 -202 89 -278 l44 -139 -39 -51 c-151 -199
-144 -453 18 -635 22 -25 48 -66 58 -90 34 -87 121 -188 202 -237 60 -35 149
-63 223 -70 175 -16 369 86 460 242 19 33 65 91 101 129 104 109 150 218 150
355 0 117 -34 213 -112 311 l-28 37 79 249 c44 137 85 261 90 277 6 15 11 31
11 35 0 13 -152 88 -243 120 -49 17 -132 40 -185 51 -95 19 -308 32 -387 24z
m363 -69 c115 -22 354 -108 390 -140 3 -2 -147 -485 -152 -492 -1 -1 -42 11
-91 26 -252 81 -529 81 -777 1 -51 -16 -93 -28 -94 -27 -2 3 -154 484 -154
489 0 9 138 69 225 99 76 25 190 51 285 63 66 8 285 -3 368 -19z m-249 -920
c30 -8 89 -19 130 -26 133 -20 211 -71 261 -172 96 -196 0 -446 -211 -549
-297 -144 -643 72 -642 402 0 155 91 320 193 348 53 15 208 14 269 -3z"/>
<path d="M1270 1960 l0 -70 -65 0 -65 0 0 -70 0 -70 65 0 64 0 3 -67 3 -68 70
0 70 0 3 68 3 67 64 0 65 0 0 70 0 70 -65 0 -65 0 0 70 0 70 -75 0 -75 0 0
-70z"/>
</g>
</svg>
